# xmcd CD database file
#
# Track frame offsets:
#	150
#	14462
#	26814
#	37190
#	46582
#	61201
#	72002
#	79789
#	98005
#	112039
#	123089
#	145695
#	153451
#
# Disc length: 2143 seconds
#
# Revision: 0
# Processed by: cddbd v1.5.1PL2 Copyright (c) Steve Scherf et al.
# Submitted via: CDex 1.51
#
DISCID=a3085d0d
DTITLE=Die Lollipops - 4 Freunde and 4 Pfoten
DYEAR=1900
DGENRE=Jazz
TTITLE0=Die Lollipops - Freunde fürs Leben
TTITLE1=Vier Freunde und vier Pfoten
TTITLE2=Wie alles begann
TTITLE3=Fahrt im Kofferraum
TTITLE4=Amedeo Edy: Un Bel Di, Vedremo
TTITLE5=Boogaloo
TTITLE6=Schlaflied
TTITLE7=Reggae für M.
TTITLE8=Mozart läuft zum alten Bahngelände
TTITLE9=Blues in F New Orleans-Style
TTITLE10=Rondo a la turka
TTITLE11=Zorro
TTITLE12=Tanzende Mädchen
EXTD=
EXTT0=
EXTT1=
EXTT2=
EXTT3=
EXTT4=
EXTT5=
EXTT6=
EXTT7=
EXTT8=
EXTT9=
EXTT10=
EXTT11=
EXTT12=
PLAYORDER=
